<svg xmlns="http://www.w3.org/2000/svg" viewBox="0 0 500 500"><g id="freepik--background-simple--inject-202"><g><path d="M185.765,91.827c-21.564,2.847-42.358,8.907-60.801,18.413-21.736,11.204-43.946,28.659-37.386,51.49,12.11,42.149,70.206,42.917,58.607,71.257-13.139,32.101-4.328,69.757,54.63,80.228,111.982,19.889,247.351-96.484,209.331-160.43-23.67-39.81-109.88-76.073-224.381-60.958Z" style="fill:#133A9A;"></path><path d="M185.765,91.827c-21.564,2.847-42.358,8.907-60.801,18.413-21.736,11.204-43.946,28.659-37.386,51.49,12.11,42.149,70.206,42.917,58.607,71.257-13.139,32.101-4.328,69.757,54.63,80.228,111.982,19.889,247.351-96.484,209.331-160.43-23.67-39.81-109.88-76.073-224.381-60.958Z" style="fill:#fff; opacity:.9;"></path></g></g></svg>
