<svg xmlns="http://www.w3.org/2000/svg" viewBox="0 0 500 500"><g id="freepik--background-simple--inject-169"><g><path d="M273.59,16.87c43.48,8.75,92.89,32.93,113.09,74.87,30.53,63.36,85.44,62.72,99.55,182.71,2.2,18.71,2.34,36.3,.7,52.75-.88,8.84-2.29,17.36-4.18,25.52-17.05,74.15-73.31,120.41-137.77,133.83-84.78,17.66-135.04-35.42-165.08-70.34-30.04-34.92-129.89-66.81-144.69-184.66-2.25-17.97-2.66-36.19-.74-54.22,4.36-41.15,21.55-85.02,52.33-113.84,2.31-2.16,4.7-4.26,7.15-6.29C141.83,17.56,214.31,4.94,273.59,16.87Z" style="fill:#92E3A9;"></path><path d="M273.59,16.87c43.48,8.75,92.89,32.93,113.09,74.87,30.53,63.36,85.44,62.72,99.55,182.71,2.2,18.71,2.34,36.3,.7,52.75-.88,8.84-2.29,17.36-4.18,25.52-17.05,74.15-73.31,120.41-137.77,133.83-84.78,17.66-135.04-35.42-165.08-70.34-30.04-34.92-129.89-66.81-144.69-184.66-2.25-17.97-2.66-36.19-.74-54.22,4.36-41.15,21.55-85.02,52.33-113.84,2.31-2.16,4.7-4.26,7.15-6.29C141.83,17.56,214.31,4.94,273.59,16.87Z" style="fill:#fff; opacity:.7;"></path></g></g></svg>
